<mxfile host="Electron" agent="Mozilla/5.0 (Windows NT 10.0; Win64; x64) AppleWebKit/537.36 (KHTML, like Gecko) draw.io/24.7.5 Chrome/126.0.6478.183 Electron/31.3.0 Safari/537.36" version="24.7.5">
  <diagram name="Page-1" id="c4acf3e9-155e-7222-9cf6-157b1a14988f">
    <mxGraphModel dx="1276" dy="606" grid="1" gridSize="10" guides="1" tooltips="1" connect="1" arrows="1" fold="1" page="1" pageScale="1" pageWidth="850" pageHeight="1100" background="none" math="0" shadow="0">
      <root>
        <mxCell id="0" />
        <mxCell id="1" parent="0" />
        <mxCell id="NpBNrk72L15HWSA4PLxd-1" value="PetCareGuide" style="swimlane;fontStyle=1;align=center;verticalAlign=top;childLayout=stackLayout;horizontal=1;startSize=26;horizontalStack=0;resizeParent=1;resizeParentMax=0;resizeLast=0;collapsible=1;marginBottom=0;whiteSpace=wrap;html=1;" parent="1" vertex="1">
          <mxGeometry x="1190" y="500" width="320" height="300" as="geometry" />
        </mxCell>
        <mxCell id="NpBNrk72L15HWSA4PLxd-2" value="-guideId:int&lt;div&gt;-subcategoryId:integer&lt;/div&gt;&lt;div&gt;-title(10 languages):string&lt;/div&gt;&lt;div&gt;-content(10 languages):string&lt;/div&gt;" style="text;strokeColor=none;fillColor=none;align=left;verticalAlign=top;spacingLeft=4;spacingRight=4;overflow=hidden;rotatable=0;points=[[0,0.5],[1,0.5]];portConstraint=eastwest;whiteSpace=wrap;html=1;" parent="NpBNrk72L15HWSA4PLxd-1" vertex="1">
          <mxGeometry y="26" width="320" height="84" as="geometry" />
        </mxCell>
        <mxCell id="NpBNrk72L15HWSA4PLxd-3" value="" style="line;strokeWidth=1;fillColor=none;align=left;verticalAlign=middle;spacingTop=-1;spacingLeft=3;spacingRight=3;rotatable=0;labelPosition=right;points=[];portConstraint=eastwest;strokeColor=inherit;" parent="NpBNrk72L15HWSA4PLxd-1" vertex="1">
          <mxGeometry y="110" width="320" height="8" as="geometry" />
        </mxCell>
        <mxCell id="NpBNrk72L15HWSA4PLxd-4" value="&lt;div&gt;+GET /api/pet-care-guide:Task&amp;lt;ActionResult&amp;lt;IEnumerable&amp;lt;PetCareGuide&amp;gt;&amp;gt;&amp;gt;&lt;/div&gt;&lt;div&gt;+POST /api/pet-care-guide {[FromBody] PetCareGuide petCareGuide}:Task&amp;lt;IActionResult&amp;gt;&lt;/div&gt;&lt;div&gt;+GET /api/pet-care-guide/{id:int}:Task&amp;lt;ActionResult&amp;lt;PetCareGuide&amp;gt;&amp;gt;&lt;/div&gt;&lt;div&gt;+DELETE /api/pet-care-guide/{id:int}:Task&amp;lt;ActionResult&amp;lt;PetCareGuide&amp;gt;&amp;gt;&lt;/div&gt;&lt;div&gt;+PUT /api/pet-care-guide/{id:int}{int id, [FromBody] PetCareGuide petCareGuide}:Task&amp;lt;IActionResult&amp;gt;&lt;/div&gt;" style="text;strokeColor=none;fillColor=none;align=left;verticalAlign=top;spacingLeft=4;spacingRight=4;overflow=hidden;rotatable=0;points=[[0,0.5],[1,0.5]];portConstraint=eastwest;whiteSpace=wrap;html=1;" parent="NpBNrk72L15HWSA4PLxd-1" vertex="1">
          <mxGeometry y="118" width="320" height="182" as="geometry" />
        </mxCell>
        <mxCell id="NpBNrk72L15HWSA4PLxd-5" value="PetSubcategory" style="swimlane;fontStyle=1;align=center;verticalAlign=top;childLayout=stackLayout;horizontal=1;startSize=26;horizontalStack=0;resizeParent=1;resizeParentMax=0;resizeLast=0;collapsible=1;marginBottom=0;whiteSpace=wrap;html=1;" parent="1" vertex="1">
          <mxGeometry x="420" y="450" width="450" height="440" as="geometry" />
        </mxCell>
        <mxCell id="NpBNrk72L15HWSA4PLxd-6" value="-subcategoryId:int&lt;div&gt;-categoryId:int&lt;/div&gt;&lt;div&gt;-subcategoryName(10 languages):string&lt;/div&gt;&lt;div&gt;-description(10 languages):string&lt;/div&gt;&lt;div&gt;-imageUrl:string&lt;/div&gt;&lt;div&gt;-origin(10 languages):string&lt;/div&gt;&lt;div&gt;-size(10 languages):string&lt;/div&gt;&lt;div&gt;-coat(10 languages):string&lt;/div&gt;&lt;div&gt;-lifespan(10 languages):string&lt;/div&gt;&lt;div&gt;-temperament(10 languages):string&lt;/div&gt;&lt;div&gt;-diet(10 languages):string&lt;/div&gt;&lt;div&gt;-latitudeAndLongitude:string&lt;/div&gt;&lt;div&gt;&lt;br&gt;&lt;/div&gt;" style="text;strokeColor=none;fillColor=none;align=left;verticalAlign=top;spacingLeft=4;spacingRight=4;overflow=hidden;rotatable=0;points=[[0,0.5],[1,0.5]];portConstraint=eastwest;whiteSpace=wrap;html=1;" parent="NpBNrk72L15HWSA4PLxd-5" vertex="1">
          <mxGeometry y="26" width="450" height="194" as="geometry" />
        </mxCell>
        <mxCell id="NpBNrk72L15HWSA4PLxd-7" value="" style="line;strokeWidth=1;fillColor=none;align=left;verticalAlign=middle;spacingTop=-1;spacingLeft=3;spacingRight=3;rotatable=0;labelPosition=right;points=[];portConstraint=eastwest;strokeColor=inherit;" parent="NpBNrk72L15HWSA4PLxd-5" vertex="1">
          <mxGeometry y="220" width="450" height="8" as="geometry" />
        </mxCell>
        <mxCell id="NpBNrk72L15HWSA4PLxd-8" value="&lt;div&gt;+GET /api/pet-subcategory:Task&amp;lt;ActionResult&amp;lt;IEnumerable&amp;lt;PetSubcategory&amp;gt;&amp;gt;&amp;gt;&lt;/div&gt;&lt;div&gt;+POST /api/pet-subcategory {[FromBody] PetSubcategory petSubcategory}:Task&amp;lt;IActionResult&amp;gt;&lt;/div&gt;&lt;div&gt;+GET /api/pet-subcategory/{id:int}:Task&amp;lt;ActionResult&amp;lt;PetSubcategory&amp;gt;&amp;gt;&lt;/div&gt;&lt;div&gt;+DELETE /api/pet-subcategory/{id:int}:Task&amp;lt;ActionResult&amp;lt;PetSubcategory&amp;gt;&amp;gt;&lt;/div&gt;&lt;div&gt;+PUT /api/pet-subcategory/{id:int}{int id, [FromBody] PetSubcategory petSubcategory}:Task&amp;lt;IActionResult&amp;gt;&lt;/div&gt;&lt;div&gt;+GET /api/pet-subcategory/subcategory-name/{id:int}-{language:string}:Task&amp;lt;ActionResult&amp;lt;PetSubcategory&amp;gt;&amp;gt;&lt;/div&gt;&lt;div&gt;+GET /api/pet-subcategory/recommended-pet/{number}-{language:string}:Task&amp;lt;ActionResult&amp;lt;IEnumerable&amp;lt;RecommendedPetRequest&amp;gt;&amp;gt;&amp;gt;&lt;/div&gt;&lt;div&gt;&lt;br&gt;&lt;/div&gt;&lt;div&gt;&lt;br&gt;&lt;/div&gt;" style="text;strokeColor=none;fillColor=none;align=left;verticalAlign=top;spacingLeft=4;spacingRight=4;overflow=hidden;rotatable=0;points=[[0,0.5],[1,0.5]];portConstraint=eastwest;whiteSpace=wrap;html=1;" parent="NpBNrk72L15HWSA4PLxd-5" vertex="1">
          <mxGeometry y="228" width="450" height="212" as="geometry" />
        </mxCell>
        <mxCell id="NpBNrk72L15HWSA4PLxd-20" value="" style="endArrow=block;endFill=1;html=1;edgeStyle=orthogonalEdgeStyle;align=left;verticalAlign=top;rounded=0;exitX=0.5;exitY=0;exitDx=0;exitDy=0;" parent="1" source="NpBNrk72L15HWSA4PLxd-5" edge="1">
          <mxGeometry x="-0.0877" y="-3" relative="1" as="geometry">
            <mxPoint x="820" y="190" as="sourcePoint" />
            <mxPoint x="645" y="350" as="targetPoint" />
            <mxPoint as="offset" />
          </mxGeometry>
        </mxCell>
        <mxCell id="NpBNrk72L15HWSA4PLxd-21" value="1..*" style="edgeLabel;resizable=0;html=1;align=left;verticalAlign=bottom;" parent="NpBNrk72L15HWSA4PLxd-20" connectable="0" vertex="1">
          <mxGeometry x="-1" relative="1" as="geometry">
            <mxPoint x="-5" y="-50" as="offset" />
          </mxGeometry>
        </mxCell>
        <mxCell id="NpBNrk72L15HWSA4PLxd-25" value="" style="endArrow=block;endFill=1;html=1;edgeStyle=orthogonalEdgeStyle;align=left;verticalAlign=top;rounded=0;exitX=0.004;exitY=0.674;exitDx=0;exitDy=0;exitPerimeter=0;entryX=1.002;entryY=0.543;entryDx=0;entryDy=0;entryPerimeter=0;" parent="1" source="NpBNrk72L15HWSA4PLxd-2" target="NpBNrk72L15HWSA4PLxd-6" edge="1">
          <mxGeometry x="-0.1203" y="7" relative="1" as="geometry">
            <mxPoint x="820" y="190" as="sourcePoint" />
            <mxPoint x="980" y="190" as="targetPoint" />
            <mxPoint x="-1" as="offset" />
          </mxGeometry>
        </mxCell>
        <mxCell id="NpBNrk72L15HWSA4PLxd-26" value="1..*" style="edgeLabel;resizable=0;html=1;align=left;verticalAlign=bottom;" parent="NpBNrk72L15HWSA4PLxd-25" connectable="0" vertex="1">
          <mxGeometry x="-1" relative="1" as="geometry">
            <mxPoint x="-161" y="7" as="offset" />
          </mxGeometry>
        </mxCell>
        <mxCell id="SFbkvMMgAGx1KCnhv9xh-1" value="PetCategory" style="swimlane;fontStyle=1;align=center;verticalAlign=top;childLayout=stackLayout;horizontal=1;startSize=26;horizontalStack=0;resizeParent=1;resizeParentMax=0;resizeLast=0;collapsible=1;marginBottom=0;whiteSpace=wrap;html=1;" parent="1" vertex="1">
          <mxGeometry x="410" y="80" width="480" height="270" as="geometry" />
        </mxCell>
        <mxCell id="SFbkvMMgAGx1KCnhv9xh-2" value="-categoryId:int&lt;div&gt;-categoryName(10 languages):string&lt;/div&gt;&lt;div&gt;-description(10 languages):string&lt;/div&gt;&lt;div&gt;-imageUrl:string&lt;/div&gt;" style="text;strokeColor=none;fillColor=none;align=left;verticalAlign=top;spacingLeft=4;spacingRight=4;overflow=hidden;rotatable=0;points=[[0,0.5],[1,0.5]];portConstraint=eastwest;whiteSpace=wrap;html=1;" parent="SFbkvMMgAGx1KCnhv9xh-1" vertex="1">
          <mxGeometry y="26" width="480" height="74" as="geometry" />
        </mxCell>
        <mxCell id="SFbkvMMgAGx1KCnhv9xh-3" value="" style="line;strokeWidth=1;fillColor=none;align=left;verticalAlign=middle;spacingTop=-1;spacingLeft=3;spacingRight=3;rotatable=0;labelPosition=right;points=[];portConstraint=eastwest;strokeColor=inherit;" parent="SFbkvMMgAGx1KCnhv9xh-1" vertex="1">
          <mxGeometry y="100" width="480" height="8" as="geometry" />
        </mxCell>
        <mxCell id="SFbkvMMgAGx1KCnhv9xh-4" value="+GET /api/pet-category:Task&amp;lt;ActionResult&amp;lt;IEnumerable&amp;lt;PetCategory&amp;gt;&amp;gt;&amp;gt;&lt;div&gt;&lt;div&gt;+POST /api/pet-category {[FromBody] PetCategory petCategory}:Task&amp;lt;IActionResult&amp;gt;&lt;br&gt;&lt;/div&gt;&lt;div&gt;+GET /api/pet-category/{id:int}:Task&amp;lt;ActionResult&amp;lt;PetCategory&amp;gt;&amp;gt;&lt;br&gt;&lt;/div&gt;&lt;div&gt;+DELETE /api/pet-category/{id:int}:Task&amp;lt;ActionResult&amp;lt;PetCategory&amp;gt;&amp;gt;&lt;br&gt;&lt;/div&gt;&lt;div&gt;+PUT /api/pet-category/{id:int}{int id, [FromBody] PetCategory petCategory}:Task&amp;lt;IActionResult&amp;gt;&lt;br&gt;&lt;/div&gt;&lt;div&gt;+GET /api/pet-category/category-name/{id:int}-{language:string}:Task&amp;lt;ActionResult&amp;lt;PetCategory&amp;gt;&amp;gt;&lt;br&gt;&lt;/div&gt;&lt;/div&gt;" style="text;strokeColor=none;fillColor=none;align=left;verticalAlign=top;spacingLeft=4;spacingRight=4;overflow=hidden;rotatable=0;points=[[0,0.5],[1,0.5]];portConstraint=eastwest;whiteSpace=wrap;html=1;" parent="SFbkvMMgAGx1KCnhv9xh-1" vertex="1">
          <mxGeometry y="108" width="480" height="162" as="geometry" />
        </mxCell>
        <mxCell id="SFbkvMMgAGx1KCnhv9xh-5" value="PetAdoption" style="swimlane;fontStyle=0;childLayout=stackLayout;horizontal=1;startSize=26;fillColor=none;horizontalStack=0;resizeParent=1;resizeParentMax=0;resizeLast=0;collapsible=1;marginBottom=0;whiteSpace=wrap;html=1;" parent="1" vertex="1">
          <mxGeometry x="1030" y="340" width="140" height="80" as="geometry" />
        </mxCell>
        <mxCell id="SFbkvMMgAGx1KCnhv9xh-6" value="- categoryId: int&lt;div&gt;- subcategoryId: int&lt;/div&gt;" style="text;strokeColor=none;fillColor=none;align=left;verticalAlign=top;spacingLeft=4;spacingRight=4;overflow=hidden;rotatable=0;points=[[0,0.5],[1,0.5]];portConstraint=eastwest;whiteSpace=wrap;html=1;" parent="SFbkvMMgAGx1KCnhv9xh-5" vertex="1">
          <mxGeometry y="26" width="140" height="54" as="geometry" />
        </mxCell>
        <mxCell id="SFbkvMMgAGx1KCnhv9xh-9" value="" style="endArrow=block;endFill=1;html=1;edgeStyle=orthogonalEdgeStyle;align=left;verticalAlign=top;rounded=0;exitX=-0.017;exitY=0.256;exitDx=0;exitDy=0;exitPerimeter=0;entryX=0.93;entryY=0;entryDx=0;entryDy=0;entryPerimeter=0;" parent="1" source="SFbkvMMgAGx1KCnhv9xh-6" target="NpBNrk72L15HWSA4PLxd-5" edge="1">
          <mxGeometry x="-0.5372" y="27" relative="1" as="geometry">
            <mxPoint x="790" y="250" as="sourcePoint" />
            <mxPoint x="950" y="250" as="targetPoint" />
            <mxPoint as="offset" />
          </mxGeometry>
        </mxCell>
        <mxCell id="SFbkvMMgAGx1KCnhv9xh-10" value="1..*" style="edgeLabel;resizable=0;html=1;align=left;verticalAlign=bottom;" parent="SFbkvMMgAGx1KCnhv9xh-9" connectable="0" vertex="1">
          <mxGeometry x="-1" relative="1" as="geometry">
            <mxPoint x="-48" y="6" as="offset" />
          </mxGeometry>
        </mxCell>
        <mxCell id="SFbkvMMgAGx1KCnhv9xh-11" value="" style="endArrow=block;endFill=1;html=1;edgeStyle=orthogonalEdgeStyle;align=left;verticalAlign=top;rounded=0;exitX=0.5;exitY=0;exitDx=0;exitDy=0;entryX=1.001;entryY=0.173;entryDx=0;entryDy=0;entryPerimeter=0;" parent="1" source="SFbkvMMgAGx1KCnhv9xh-5" target="SFbkvMMgAGx1KCnhv9xh-4" edge="1">
          <mxGeometry x="-0.7089" y="-30" relative="1" as="geometry">
            <mxPoint x="790" y="450" as="sourcePoint" />
            <mxPoint x="950" y="450" as="targetPoint" />
            <mxPoint as="offset" />
          </mxGeometry>
        </mxCell>
        <mxCell id="SFbkvMMgAGx1KCnhv9xh-12" value="1..*" style="edgeLabel;resizable=0;html=1;align=left;verticalAlign=bottom;" parent="SFbkvMMgAGx1KCnhv9xh-11" connectable="0" vertex="1">
          <mxGeometry x="-1" relative="1" as="geometry">
            <mxPoint x="-10" y="-80" as="offset" />
          </mxGeometry>
        </mxCell>
        <mxCell id="bwL0fHY_sXf7HNQ_355J-1" value="PetCareGuideInfo" style="swimlane;fontStyle=0;childLayout=stackLayout;horizontal=1;startSize=26;fillColor=none;horizontalStack=0;resizeParent=1;resizeParentMax=0;resizeLast=0;collapsible=1;marginBottom=0;whiteSpace=wrap;html=1;" parent="1" vertex="1">
          <mxGeometry x="70" y="710" width="140" height="100" as="geometry" />
        </mxCell>
        <mxCell id="bwL0fHY_sXf7HNQ_355J-4" value="&lt;div&gt;- guideId: int&lt;/div&gt;&lt;div&gt;- subcategoryId: int&lt;/div&gt;- title: string&lt;div&gt;- content: string&lt;/div&gt;" style="text;strokeColor=none;fillColor=none;align=left;verticalAlign=top;spacingLeft=4;spacingRight=4;overflow=hidden;rotatable=0;points=[[0,0.5],[1,0.5]];portConstraint=eastwest;whiteSpace=wrap;html=1;" parent="bwL0fHY_sXf7HNQ_355J-1" vertex="1">
          <mxGeometry y="26" width="140" height="74" as="geometry" />
        </mxCell>
        <mxCell id="bwL0fHY_sXf7HNQ_355J-5" value="PetCareGuideSearchRequest" style="swimlane;fontStyle=0;childLayout=stackLayout;horizontal=1;startSize=26;fillColor=none;horizontalStack=0;resizeParent=1;resizeParentMax=0;resizeLast=0;collapsible=1;marginBottom=0;whiteSpace=wrap;html=1;" parent="1" vertex="1">
          <mxGeometry x="940" y="690" width="180" height="110" as="geometry" />
        </mxCell>
        <mxCell id="bwL0fHY_sXf7HNQ_355J-8" value="- subcategoryId: int&lt;div&gt;- searchTitle: string&lt;/div&gt;&lt;div&gt;- title: string&lt;/div&gt;&lt;div&gt;- content: string&lt;/div&gt;" style="text;strokeColor=none;fillColor=none;align=left;verticalAlign=top;spacingLeft=4;spacingRight=4;overflow=hidden;rotatable=0;points=[[0,0.5],[1,0.5]];portConstraint=eastwest;whiteSpace=wrap;html=1;" parent="bwL0fHY_sXf7HNQ_355J-5" vertex="1">
          <mxGeometry y="26" width="180" height="84" as="geometry" />
        </mxCell>
        <mxCell id="bwL0fHY_sXf7HNQ_355J-9" value="PetCategoryPageRequest" style="swimlane;fontStyle=0;childLayout=stackLayout;horizontal=1;startSize=26;fillColor=none;horizontalStack=0;resizeParent=1;resizeParentMax=0;resizeLast=0;collapsible=1;marginBottom=0;whiteSpace=wrap;html=1;" parent="1" vertex="1">
          <mxGeometry x="110" y="80" width="200" height="120" as="geometry" />
        </mxCell>
        <mxCell id="bwL0fHY_sXf7HNQ_355J-10" value="- categoryId: int&lt;div&gt;- categoryName: string&lt;/div&gt;&lt;div&gt;- description: string&lt;/div&gt;&lt;div&gt;- imageUrl: string&lt;/div&gt;&lt;div&gt;&lt;br&gt;&lt;div&gt;&lt;br&gt;&lt;/div&gt;&lt;/div&gt;" style="text;strokeColor=none;fillColor=none;align=left;verticalAlign=top;spacingLeft=4;spacingRight=4;overflow=hidden;rotatable=0;points=[[0,0.5],[1,0.5]];portConstraint=eastwest;whiteSpace=wrap;html=1;" parent="bwL0fHY_sXf7HNQ_355J-9" vertex="1">
          <mxGeometry y="26" width="200" height="94" as="geometry" />
        </mxCell>
        <mxCell id="bwL0fHY_sXf7HNQ_355J-14" value="PetCategorySearchRequest" style="swimlane;fontStyle=0;childLayout=stackLayout;horizontal=1;startSize=26;fillColor=none;horizontalStack=0;resizeParent=1;resizeParentMax=0;resizeLast=0;collapsible=1;marginBottom=0;whiteSpace=wrap;html=1;" parent="1" vertex="1">
          <mxGeometry x="40" y="225" width="270" height="80" as="geometry" />
        </mxCell>
        <mxCell id="bwL0fHY_sXf7HNQ_355J-15" value="- categoryId: int&lt;div&gt;- categoryName: string&lt;/div&gt;&lt;div&gt;- description: string&lt;br&gt;&lt;div&gt;&lt;br&gt;&lt;/div&gt;&lt;div&gt;&lt;br&gt;&lt;/div&gt;&lt;/div&gt;" style="text;strokeColor=none;fillColor=none;align=left;verticalAlign=top;spacingLeft=4;spacingRight=4;overflow=hidden;rotatable=0;points=[[0,0.5],[1,0.5]];portConstraint=eastwest;whiteSpace=wrap;html=1;" parent="bwL0fHY_sXf7HNQ_355J-14" vertex="1">
          <mxGeometry y="26" width="270" height="54" as="geometry" />
        </mxCell>
        <mxCell id="bwL0fHY_sXf7HNQ_355J-20" value="PetSubcategoryInfo" style="swimlane;fontStyle=0;childLayout=stackLayout;horizontal=1;startSize=26;fillColor=none;horizontalStack=0;resizeParent=1;resizeParentMax=0;resizeLast=0;collapsible=1;marginBottom=0;whiteSpace=wrap;html=1;" parent="1" vertex="1">
          <mxGeometry x="70" y="570" width="180" height="100" as="geometry" />
        </mxCell>
        <mxCell id="bwL0fHY_sXf7HNQ_355J-21" value="&lt;div&gt;- subcategoryId: int&lt;/div&gt;&lt;div&gt;- subcategoryName: string&lt;/div&gt;&lt;div&gt;- imageUrl: string&lt;/div&gt;" style="text;strokeColor=none;fillColor=none;align=left;verticalAlign=top;spacingLeft=4;spacingRight=4;overflow=hidden;rotatable=0;points=[[0,0.5],[1,0.5]];portConstraint=eastwest;whiteSpace=wrap;html=1;" parent="bwL0fHY_sXf7HNQ_355J-20" vertex="1">
          <mxGeometry y="26" width="180" height="74" as="geometry" />
        </mxCell>
        <mxCell id="bwL0fHY_sXf7HNQ_355J-22" value="PetSubcategorySearchRequest" style="swimlane;fontStyle=0;childLayout=stackLayout;horizontal=1;startSize=26;fillColor=none;horizontalStack=0;resizeParent=1;resizeParentMax=0;resizeLast=0;collapsible=1;marginBottom=0;whiteSpace=wrap;html=1;" parent="1" vertex="1">
          <mxGeometry x="600" y="1035" width="270" height="170" as="geometry" />
        </mxCell>
        <mxCell id="bwL0fHY_sXf7HNQ_355J-23" value="- subcategoryId: int&lt;div&gt;- subcategoryName: string&lt;/div&gt;&lt;div&gt;- description: string&lt;br&gt;&lt;div&gt;- origin: string&lt;/div&gt;&lt;div&gt;- size: string&lt;/div&gt;&lt;div&gt;- coat: string&lt;/div&gt;&lt;div&gt;- lifespan: string&lt;/div&gt;&lt;div&gt;- temperature: string&lt;/div&gt;&lt;div&gt;- diet: string&lt;/div&gt;&lt;div&gt;&lt;br&gt;&lt;/div&gt;&lt;/div&gt;" style="text;strokeColor=none;fillColor=none;align=left;verticalAlign=top;spacingLeft=4;spacingRight=4;overflow=hidden;rotatable=0;points=[[0,0.5],[1,0.5]];portConstraint=eastwest;whiteSpace=wrap;html=1;" parent="bwL0fHY_sXf7HNQ_355J-22" vertex="1">
          <mxGeometry y="26" width="270" height="144" as="geometry" />
        </mxCell>
        <mxCell id="bwL0fHY_sXf7HNQ_355J-24" value="PetSubcategoryPageRequest" style="swimlane;fontStyle=0;childLayout=stackLayout;horizontal=1;startSize=26;fillColor=none;horizontalStack=0;resizeParent=1;resizeParentMax=0;resizeLast=0;collapsible=1;marginBottom=0;whiteSpace=wrap;html=1;" parent="1" vertex="1">
          <mxGeometry x="290" y="1000" width="270" height="240" as="geometry" />
        </mxCell>
        <mxCell id="bwL0fHY_sXf7HNQ_355J-25" value="- subcategoryId: int&lt;div&gt;- category: int&lt;br&gt;&lt;div&gt;- subcategoryName: string&lt;/div&gt;&lt;div&gt;- description: string&lt;br&gt;&lt;div&gt;- origin: string&lt;/div&gt;&lt;div&gt;- size: string&lt;/div&gt;&lt;div&gt;- coat: string&lt;/div&gt;&lt;div&gt;- lifespan: string&lt;/div&gt;&lt;div&gt;- temperature: string&lt;/div&gt;&lt;div&gt;- diet: string&lt;/div&gt;&lt;div&gt;- categoryName: string&lt;/div&gt;&lt;/div&gt;&lt;/div&gt;&lt;div&gt;- latitudeAndLongitude: string&lt;/div&gt;&lt;div&gt;&lt;br&gt;&lt;/div&gt;" style="text;strokeColor=none;fillColor=none;align=left;verticalAlign=top;spacingLeft=4;spacingRight=4;overflow=hidden;rotatable=0;points=[[0,0.5],[1,0.5]];portConstraint=eastwest;whiteSpace=wrap;html=1;" parent="bwL0fHY_sXf7HNQ_355J-24" vertex="1">
          <mxGeometry y="26" width="270" height="214" as="geometry" />
        </mxCell>
        <mxCell id="VIKdhp0J7No6j7CPGXvq-1" value="RecommendedPetRequest" style="swimlane;fontStyle=0;childLayout=stackLayout;horizontal=1;startSize=26;fillColor=none;horizontalStack=0;resizeParent=1;resizeParentMax=0;resizeLast=0;collapsible=1;marginBottom=0;whiteSpace=wrap;html=1;" parent="1" vertex="1">
          <mxGeometry x="70" y="450" width="190" height="100" as="geometry" />
        </mxCell>
        <mxCell id="VIKdhp0J7No6j7CPGXvq-2" value="- subcategoryId: int&lt;div&gt;- subcategoryName: string&lt;/div&gt;&lt;div&gt;- description: string&lt;/div&gt;&lt;div&gt;- imageUrl: string&lt;br&gt;&lt;div&gt;&lt;br&gt;&lt;/div&gt;&lt;div&gt;&lt;br&gt;&lt;/div&gt;&lt;div&gt;&lt;br&gt;&lt;/div&gt;&lt;div&gt;&lt;br&gt;&lt;/div&gt;&lt;/div&gt;" style="text;strokeColor=none;fillColor=none;align=left;verticalAlign=top;spacingLeft=4;spacingRight=4;overflow=hidden;rotatable=0;points=[[0,0.5],[1,0.5]];portConstraint=eastwest;whiteSpace=wrap;html=1;" parent="VIKdhp0J7No6j7CPGXvq-1" vertex="1">
          <mxGeometry y="26" width="190" height="74" as="geometry" />
        </mxCell>
        <mxCell id="VIKdhp0J7No6j7CPGXvq-11" value="" style="endArrow=block;endFill=1;html=1;edgeStyle=orthogonalEdgeStyle;align=left;verticalAlign=top;rounded=0;exitX=1.011;exitY=0.314;exitDx=0;exitDy=0;exitPerimeter=0;entryX=0.002;entryY=0.12;entryDx=0;entryDy=0;entryPerimeter=0;" parent="1" source="VIKdhp0J7No6j7CPGXvq-2" target="NpBNrk72L15HWSA4PLxd-6" edge="1">
          <mxGeometry x="-1" relative="1" as="geometry">
            <mxPoint x="200" y="650" as="sourcePoint" />
            <mxPoint x="417" y="499" as="targetPoint" />
          </mxGeometry>
        </mxCell>
        <mxCell id="VIKdhp0J7No6j7CPGXvq-12" value="1..*" style="edgeLabel;resizable=0;html=1;align=left;verticalAlign=bottom;" parent="VIKdhp0J7No6j7CPGXvq-11" connectable="0" vertex="1">
          <mxGeometry x="-1" relative="1" as="geometry">
            <mxPoint x="58" y="1" as="offset" />
          </mxGeometry>
        </mxCell>
        <mxCell id="VIKdhp0J7No6j7CPGXvq-13" value="" style="endArrow=block;endFill=1;html=1;edgeStyle=orthogonalEdgeStyle;align=left;verticalAlign=top;rounded=0;" parent="1" edge="1">
          <mxGeometry x="-1" relative="1" as="geometry">
            <mxPoint x="310" y="130" as="sourcePoint" />
            <mxPoint x="410" y="130" as="targetPoint" />
          </mxGeometry>
        </mxCell>
        <mxCell id="VIKdhp0J7No6j7CPGXvq-14" value="1" style="edgeLabel;resizable=0;html=1;align=left;verticalAlign=bottom;" parent="VIKdhp0J7No6j7CPGXvq-13" connectable="0" vertex="1">
          <mxGeometry x="-1" relative="1" as="geometry">
            <mxPoint x="39" y="4" as="offset" />
          </mxGeometry>
        </mxCell>
        <mxCell id="VIKdhp0J7No6j7CPGXvq-16" value="" style="endArrow=block;endFill=1;html=1;edgeStyle=orthogonalEdgeStyle;align=left;verticalAlign=top;rounded=0;exitX=1.002;exitY=0.225;exitDx=0;exitDy=0;exitPerimeter=0;entryX=0;entryY=0.464;entryDx=0;entryDy=0;entryPerimeter=0;" parent="1" source="bwL0fHY_sXf7HNQ_355J-15" target="SFbkvMMgAGx1KCnhv9xh-4" edge="1">
          <mxGeometry x="-1" relative="1" as="geometry">
            <mxPoint x="350" y="250" as="sourcePoint" />
            <mxPoint x="450" y="250" as="targetPoint" />
          </mxGeometry>
        </mxCell>
        <mxCell id="VIKdhp0J7No6j7CPGXvq-17" value="1..*" style="edgeLabel;resizable=0;html=1;align=left;verticalAlign=bottom;" parent="VIKdhp0J7No6j7CPGXvq-16" connectable="0" vertex="1">
          <mxGeometry x="-1" relative="1" as="geometry">
            <mxPoint x="39" y="4" as="offset" />
          </mxGeometry>
        </mxCell>
        <mxCell id="VIKdhp0J7No6j7CPGXvq-20" value="" style="endArrow=block;endFill=1;html=1;edgeStyle=orthogonalEdgeStyle;align=left;verticalAlign=top;rounded=0;exitX=0.781;exitY=0;exitDx=0;exitDy=0;exitPerimeter=0;" parent="1" source="bwL0fHY_sXf7HNQ_355J-24" edge="1">
          <mxGeometry x="-0.6691" y="41" relative="1" as="geometry">
            <mxPoint x="500" y="920" as="sourcePoint" />
            <mxPoint x="500" y="890" as="targetPoint" />
            <mxPoint as="offset" />
          </mxGeometry>
        </mxCell>
        <mxCell id="VIKdhp0J7No6j7CPGXvq-21" value="1" style="edgeLabel;resizable=0;html=1;align=left;verticalAlign=bottom;" parent="VIKdhp0J7No6j7CPGXvq-20" connectable="0" vertex="1">
          <mxGeometry x="-1" relative="1" as="geometry">
            <mxPoint x="-6" y="-64" as="offset" />
          </mxGeometry>
        </mxCell>
        <mxCell id="VIKdhp0J7No6j7CPGXvq-22" value="" style="endArrow=block;endFill=1;html=1;edgeStyle=orthogonalEdgeStyle;align=left;verticalAlign=top;rounded=0;exitX=0.443;exitY=0;exitDx=0;exitDy=0;exitPerimeter=0;entryX=0.666;entryY=1.001;entryDx=0;entryDy=0;entryPerimeter=0;" parent="1" source="bwL0fHY_sXf7HNQ_355J-22" target="NpBNrk72L15HWSA4PLxd-8" edge="1">
          <mxGeometry x="-1" relative="1" as="geometry">
            <mxPoint x="740" y="1030" as="sourcePoint" />
            <mxPoint x="740" y="900" as="targetPoint" />
          </mxGeometry>
        </mxCell>
        <mxCell id="VIKdhp0J7No6j7CPGXvq-23" value="1..*" style="edgeLabel;resizable=0;html=1;align=left;verticalAlign=bottom;" parent="VIKdhp0J7No6j7CPGXvq-22" connectable="0" vertex="1">
          <mxGeometry x="-1" relative="1" as="geometry">
            <mxPoint y="-75" as="offset" />
          </mxGeometry>
        </mxCell>
        <mxCell id="VIKdhp0J7No6j7CPGXvq-24" value="" style="endArrow=block;endFill=1;html=1;edgeStyle=orthogonalEdgeStyle;align=left;verticalAlign=top;rounded=0;entryX=-0.006;entryY=0.69;entryDx=0;entryDy=0;entryPerimeter=0;" parent="1" target="NpBNrk72L15HWSA4PLxd-6" edge="1">
          <mxGeometry x="-1" relative="1" as="geometry">
            <mxPoint x="250" y="610" as="sourcePoint" />
            <mxPoint x="410" y="610" as="targetPoint" />
          </mxGeometry>
        </mxCell>
        <mxCell id="VIKdhp0J7No6j7CPGXvq-25" value="1" style="edgeLabel;resizable=0;html=1;align=left;verticalAlign=bottom;" parent="VIKdhp0J7No6j7CPGXvq-24" connectable="0" vertex="1">
          <mxGeometry x="-1" relative="1" as="geometry">
            <mxPoint x="80" y="4" as="offset" />
          </mxGeometry>
        </mxCell>
        <mxCell id="VIKdhp0J7No6j7CPGXvq-26" value="" style="endArrow=block;endFill=1;html=1;edgeStyle=orthogonalEdgeStyle;align=left;verticalAlign=top;rounded=0;entryX=0;entryY=0.387;entryDx=0;entryDy=0;entryPerimeter=0;" parent="1" target="NpBNrk72L15HWSA4PLxd-8" edge="1">
          <mxGeometry x="-1" relative="1" as="geometry">
            <mxPoint x="210" y="760" as="sourcePoint" />
            <mxPoint x="370" y="760" as="targetPoint" />
          </mxGeometry>
        </mxCell>
        <mxCell id="VIKdhp0J7No6j7CPGXvq-27" value="1..*" style="edgeLabel;resizable=0;html=1;align=left;verticalAlign=bottom;" parent="VIKdhp0J7No6j7CPGXvq-26" connectable="0" vertex="1">
          <mxGeometry x="-1" relative="1" as="geometry">
            <mxPoint x="100" as="offset" />
          </mxGeometry>
        </mxCell>
        <mxCell id="VIKdhp0J7No6j7CPGXvq-28" value="" style="endArrow=block;endFill=1;html=1;edgeStyle=orthogonalEdgeStyle;align=left;verticalAlign=top;rounded=0;exitX=-0.013;exitY=0.341;exitDx=0;exitDy=0;exitPerimeter=0;" parent="1" source="bwL0fHY_sXf7HNQ_355J-8" edge="1">
          <mxGeometry x="-1" relative="1" as="geometry">
            <mxPoint x="990" y="910" as="sourcePoint" />
            <mxPoint x="870" y="745" as="targetPoint" />
          </mxGeometry>
        </mxCell>
        <mxCell id="VIKdhp0J7No6j7CPGXvq-29" value="1" style="edgeLabel;resizable=0;html=1;align=left;verticalAlign=bottom;" parent="VIKdhp0J7No6j7CPGXvq-28" connectable="0" vertex="1">
          <mxGeometry x="-1" relative="1" as="geometry">
            <mxPoint x="-38" as="offset" />
          </mxGeometry>
        </mxCell>
        <mxCell id="VIKdhp0J7No6j7CPGXvq-30" value="1..*" style="edgeLabel;html=1;align=center;verticalAlign=middle;resizable=0;points=[];" parent="VIKdhp0J7No6j7CPGXvq-28" vertex="1" connectable="0">
          <mxGeometry x="0.0002" y="-7" relative="1" as="geometry">
            <mxPoint x="-2" y="-1" as="offset" />
          </mxGeometry>
        </mxCell>
        <mxCell id="VIKdhp0J7No6j7CPGXvq-31" value="" style="endArrow=block;endFill=1;html=1;edgeStyle=orthogonalEdgeStyle;align=left;verticalAlign=top;rounded=0;exitX=0.998;exitY=0.302;exitDx=0;exitDy=0;exitPerimeter=0;entryX=-0.011;entryY=0.678;entryDx=0;entryDy=0;entryPerimeter=0;" parent="1" source="bwL0fHY_sXf7HNQ_355J-8" target="NpBNrk72L15HWSA4PLxd-4" edge="1">
          <mxGeometry x="-1" relative="1" as="geometry">
            <mxPoint x="1240" y="880" as="sourcePoint" />
            <mxPoint x="1400" y="880" as="targetPoint" />
          </mxGeometry>
        </mxCell>
      </root>
    </mxGraphModel>
  </diagram>
</mxfile>
